<?xml version="1.0" encoding="utf-8"?>
<!-- Generator: Adobe Illustrator 22.0.0, SVG Export Plug-In . SVG Version: 6.00 Build 0)  -->
<svg version="1.1" id="圖層_1" xmlns="http://www.w3.org/2000/svg" xmlns:xlink="http://www.w3.org/1999/xlink" x="0px" y="0px"
	 viewBox="0 0 415.8 415.8" style="enable-background:new 0 0 415.8 415.8;" xml:space="preserve">
<style type="text/css">
	.st0{fill:#3BB647;}
</style>
<title>資產 2</title>
<g id="圖層_2_1_">
	<g id="圖層_1-2">
		<path class="st0" d="M207.9,32c97.2,0,175.9,78.8,175.9,175.9c0,46.7-18.5,91.4-51.5,124.4c-68.7,68.7-180.1,68.7-248.8,0
			s-68.7-180.1,0-248.8C116.4,50.4,161.2,31.9,207.9,32 M207.9,0C93.1,0,0,93.1,0,207.9s93.1,207.9,207.9,207.9
			s207.9-93.1,207.9-207.9S322.7,0,207.9,0z"/>
		<path class="st0" d="M184.2,313.1l-91.7-91.7l33.4-33.5l57.5,57.6l117.1-116.7l34.4,34.3L184.2,313.1z"/>
	</g>
</g>
</svg>
