<svg xmlns="http://www.w3.org/2000/svg" viewBox="0 0 216.01 48.64"><defs><style>.cls-1{fill:#231815;}.cls-2{fill:#e72410;}.cls-3{fill:#fff;}</style></defs><title>sinopac-logo-min</title><g id="圖層_2" data-name="圖層 2"><g id="圖層_1-2" data-name="圖層 1"><path class="cls-1" d="M66.2,21.31H78.1L79,22.46q-1.16,8.2-11.73,14.91L65,34.83a30.4,30.4,0,0,0,6.1-3.89,20.58,20.58,0,0,0,3.36-3.8,9,9,0,0,0,1.25-2.34.35.35,0,0,0,0-.37,1.33,1.33,0,0,0-.74-.17H66.2ZM84,24.94V36.22a3.9,3.9,0,0,1-1.42,3.19,5.27,5.27,0,0,1-3.53,1,25.15,25.15,0,0,1-5.49-.68l-.2-3.26c3.5,1,5.72,1.22,6.67.75a2.47,2.47,0,0,0,.88-2V18.36c0-.31-.16-.47-.5-.47H67.12v-3H83c.66,0,1,.37.95,1.05v1.19A42.61,42.61,0,0,0,88.7,27.41a38.23,38.23,0,0,0,9,8.81l-2.65,2A40.85,40.85,0,0,1,84,24.94ZM71,11.49l.44-3c1.6.11,4.48.42,8.64.91A104.09,104.09,0,0,1,90.7,11l-.64,3A108.32,108.32,0,0,0,71,11.49Zm24.22,3,2.14,2.06a47.08,47.08,0,0,1-7.15,6.85l-2-2.21A47.66,47.66,0,0,0,95.17,14.54Z"/><path class="cls-1" d="M113.79,37.68c-.14-.31-.27-.62-.41-.91-.29-.54-.52-1-.68-1.36h-4.33c-.21,0-.31-.11-.31-.33V29.52a.27.27,0,0,1,.31-.31h24.94c.22,0,.33.1.33.31v5.56a.29.29,0,0,1-.33.33h-4.48c-.16.43-.38,1-.67,1.6a4.23,4.23,0,0,0-.34.67H137v2.41H104.6V37.68Zm-8.37-12.13h30.94v2.27H105.42ZM126.63,20h-3.18V17.9h3.18V16.23h-3.18V14.1h3.18V12.3h-3.18V10.17h3.18v-2H129v2h2.84V12.3H129v1.8h2.71v2.13H129V17.9h2.71V20H129v1.73h3.66a.39.39,0,0,0,.44-.44V8.78h2.67V22.91A1,1,0,0,1,134.69,24H107a1,1,0,0,1-1.09-1.12V8.78h2.68V21.32c0,.29.14.44.41.44h3.69V20h-3V17.9h3V16.1h-2.91V14h2.91V12.3h-3V10.17h3V8.34h2.41v1.83h2.71V12.3h-2.71V14h2.71V16.1h-2.71v1.8h2.84V20h-2.84v1.73h4.23V8.34H122V21.76h4.64Zm4.47,11.45H110.57c-.09,0-.13,0-.1.11V33c0,.07,0,.11.1.13H131.1c.09,0,.14-.06.14-.13V31.59C131.24,31.52,131.19,31.48,131.1,31.48Zm-14.43,6.2h8.2c.38-.76.76-1.52,1.12-2.27H115.62C115.84,35.84,116.19,36.6,116.67,37.68Z"/><path class="cls-1" d="M152.57,10.82a28.91,28.91,0,0,1-6.07,5.59L144,14.68q5.65-3.45,7.39-6.61H154c-.07.18-.15.38-.24.58l.07-.07a54.93,54.93,0,0,0,4.77,4.07l-2.2,2A49.92,49.92,0,0,1,152.57,10.82Zm-8.3,17.35,2.57-.78a28.91,28.91,0,0,1,1.76,6.54l-2.64.64A32.53,32.53,0,0,0,144.27,28.17Zm5.72,8V25.76h-5.15V23.08H150V19.53h-3.65V16.85h10.19v2.68h-3.72v3.55h4.81v2.68h-4.81v9.72c2.16-.58,3.6-1,4.3-1.18l.58,2.74a119.92,119.92,0,0,1-12.44,2.75L144.88,37C146.43,36.8,148.14,36.49,150,36.13Zm5.26-8.71,2.37.85q-.65,2.4-1.59,4.94l-2.31-1A32,32,0,0,0,155.25,27.42Zm14,3.15a41.38,41.38,0,0,0,4.95-4.37l1.83,2a37.91,37.91,0,0,1-5.42,4.74,24.4,24.4,0,0,0,6.1,5.46l-2.51,2A26.9,26.9,0,0,1,169.41,36a17.69,17.69,0,0,1-4.17-11h-3.08V36.54q2.88-.88,4.91-1.73l.92,2.68a50.6,50.6,0,0,1-10.13,3.08l-.78-2.75c.76-.2,1.52-.38,2.27-.54V9.94a.72.72,0,0,1,.81-.82h13.49a.73.73,0,0,1,.84.82V24.2a.79.79,0,0,1-.88.88h-5.56A17.93,17.93,0,0,0,169.24,30.57Zm-7.08-14.81h9.52V12.44a.6.6,0,0,0-.68-.64h-8.16c-.48,0-.7.25-.68.68Zm9.52,2.68h-9.52v4h8.78a.66.66,0,0,0,.74-.75Z"/><path class="cls-1" d="M188.39,26.84c-.81.83-1.57,1.56-2.27,2.17l-2.4-1.9a26.44,26.44,0,0,0,7.55-10L194,18.3A48.25,48.25,0,0,1,191.34,23V40.36h-3ZM190,8.34l2.74,1.05Q190,15.9,186.46,19L184,17.32A22.09,22.09,0,0,0,190,8.34ZM207.64,21h-12.4V18H216V21h-5.42V36.56a3.41,3.41,0,0,1-1.56,3c-1.88,1.23-5.29,1.11-10.23-.33l.06-3.09a45.11,45.11,0,0,0,5.19,1.22,4.34,4.34,0,0,0,3.29-.57,1.29,1.29,0,0,0,.3-1ZM196.32,9.9h18.33v2.94H196.32Z"/><path class="cls-2" d="M48.64,24.32A24.32,24.32,0,1,1,24.32,0,24.32,24.32,0,0,1,48.64,24.32Z"/><rect class="cls-3" x="27.02" y="8.79" width="6.08" height="6.08"/><polygon class="cls-3" points="5.4 25.67 5.4 31.08 10.81 31.08 10.81 36.48 16.21 36.48 16.21 25.67 5.4 25.67"/><polygon class="cls-3" points="6.75 14.86 6.75 20.27 21.62 20.27 21.62 36.48 27.02 36.48 27.02 14.86 6.75 14.86"/><polygon class="cls-3" points="32.43 20.27 32.43 36.48 37.83 36.48 37.83 25.67 44.58 25.67 44.58 20.27 32.43 20.27"/></g></g></svg>