<svg xmlns="http://www.w3.org/2000/svg" viewBox="0 0 216.08 63.66"><defs><style>.cls-1{fill:#231815;}.cls-2{fill:#e72410;}.cls-3{fill:#fff;}</style></defs><title>sinopac-logo</title><g id="圖層_2" data-name="圖層 2"><g id="圖層_1-2" data-name="圖層 1"><path class="cls-1" d="M77,57.91a5.08,5.08,0,0,1-1.63,4,6.66,6.66,0,0,1-4.52,1.43h-6V46.15H71a5.84,5.84,0,0,1,3.71.92,3.16,3.16,0,0,1,1.1,2.57,3.52,3.52,0,0,1-.67,2.28A3.42,3.42,0,0,1,73,53a4.46,4.46,0,0,1,2.86,1.48A4.91,4.91,0,0,1,77,57.91Zm-4.87-7.34a1.82,1.82,0,0,0-.55-1.48,2.54,2.54,0,0,0-1.65-.45H68.58v3.8H70a2.28,2.28,0,0,0,1.68-.5A1.89,1.89,0,0,0,72.12,50.57Zm1,7.14a3,3,0,0,0-.76-2.19,3.34,3.34,0,0,0-2.49-.79H68.58v6.15h1.53a3,3,0,0,0,2.34-.81A3.5,3.5,0,0,0,73.15,57.71Z"/><path class="cls-1" d="M90.55,63.37H87.13l-.06-1.71A3.19,3.19,0,0,1,85.66,63a4.9,4.9,0,0,1-2.32.52,4.5,4.5,0,0,1-3.29-1.09,4.44,4.44,0,0,1-1.12-3.32v-.23a4.09,4.09,0,0,1,1.49-3.4,6.19,6.19,0,0,1,4-1.19,5.43,5.43,0,0,1,1.5.21,2.57,2.57,0,0,1,1.08.55v-1.3a1.38,1.38,0,0,0-.61-1.14,2.74,2.74,0,0,0-1.73-.47,7.87,7.87,0,0,0-2.15.26,7.69,7.69,0,0,0-1.63.66V50.85a13.63,13.63,0,0,1,2-.62A11.56,11.56,0,0,1,85.58,50a5.26,5.26,0,0,1,3.75,1.15,4.86,4.86,0,0,1,1.22,3.67ZM87,59v-.36a2.6,2.6,0,0,0-.56-1.8,2.08,2.08,0,0,0-1.65-.63,2.23,2.23,0,0,0-1.63.59,2.53,2.53,0,0,0-.6,1.87V59a2,2,0,0,0,.64,1.78,2.71,2.71,0,0,0,1.61.44,2.33,2.33,0,0,0,1.51-.54A2.05,2.05,0,0,0,87,59Z"/><path class="cls-1" d="M105.21,63.37h-3.65V54.15a1.33,1.33,0,0,0-.43-1,1.7,1.7,0,0,0-1.26-.45,2.83,2.83,0,0,0-1.39.33,3.51,3.51,0,0,0-1,.85v9.45H93.82V50.23h3.5l.07,2.09a3.84,3.84,0,0,1,1.53-1.65,5.15,5.15,0,0,1,2.76-.71,3.32,3.32,0,0,1,2.59,1,4.62,4.62,0,0,1,.94,3.16Z"/><path class="cls-1" d="M120.72,63.37h-4.28L112.25,58v5.36h-3.64V46.15h3.64v9.41l4.39-5.33H120l-5.06,5.84Z"/><path class="cls-1" d="M138.74,58.25a4.63,4.63,0,0,1-1.83,4,8.58,8.58,0,0,1-5.07,1.31,18.55,18.55,0,0,1-3.14-.22,10.35,10.35,0,0,1-2.11-.54v-3a7.57,7.57,0,0,0,2,.73,11.94,11.94,0,0,0,2.75.33,4.9,4.9,0,0,0,2.61-.5,2.16,2.16,0,0,0,.19-3,9.09,9.09,0,0,0-2.92-1.54,7.65,7.65,0,0,1-3-2,4.8,4.8,0,0,1-1.05-3.28,4.15,4.15,0,0,1,1.69-3.35,7.27,7.27,0,0,1,4.68-1.37,12.86,12.86,0,0,1,2.6.24,10.11,10.11,0,0,1,1.62.43v2.58c-.65-.16-1.3-.3-1.94-.42a11.28,11.28,0,0,0-2.06-.18,3.87,3.87,0,0,0-2.23.49,1.43,1.43,0,0,0-.69,1.21,1.78,1.78,0,0,0,.52,1.38,11.91,11.91,0,0,0,3,1.38,7,7,0,0,1,3.31,2.14A4.92,4.92,0,0,1,138.74,58.25Z"/><path class="cls-1" d="M144.87,47.29a1.88,1.88,0,0,1-.56,1.38,1.93,1.93,0,0,1-2.72,0,1.93,1.93,0,1,1,3.28-1.38Zm-.1,16.08h-3.64V50.23h3.64Z"/><path class="cls-1" d="M159.54,63.37H155.9V54.15a1.3,1.3,0,0,0-.44-1,1.67,1.67,0,0,0-1.26-.45,2.82,2.82,0,0,0-1.38.33,3.51,3.51,0,0,0-1,.85v9.45h-3.64V50.23h3.5l.07,2.09a3.78,3.78,0,0,1,1.53-1.65A5.15,5.15,0,0,1,156,50a3.29,3.29,0,0,1,2.58,1,4.57,4.57,0,0,1,.94,3.16Z"/><path class="cls-1" d="M175.59,57.2A6.34,6.34,0,0,1,173.84,62a7.64,7.64,0,0,1-9.66,0,6.28,6.28,0,0,1-1.8-4.72v-.84a6.36,6.36,0,0,1,1.78-4.68,7.45,7.45,0,0,1,9.68,0,6.39,6.39,0,0,1,1.75,4.67Zm-3.77-.32v-.2a5.82,5.82,0,0,0-.83-3.63,2.54,2.54,0,0,0-2-1,2.45,2.45,0,0,0-2,1,6.1,6.1,0,0,0-.78,3.56v.2c0,1.85.25,3.08.76,3.69a2.56,2.56,0,0,0,2.06.91,2.67,2.67,0,0,0,2-.89C171.54,60,171.82,58.76,171.82,56.88Z"/><path class="cls-1" d="M189.86,52a4,4,0,0,1-1.34,3.3,5.91,5.91,0,0,1-3.87,1.11h-2.34v7h-3.87V46.15h6.46c1.85,0,3.14.45,3.86,1.35a4.77,4.77,0,0,1,1.1,3.11Zm-4,.26V50.58a1.77,1.77,0,0,0-.55-1.44,2.79,2.79,0,0,0-1.81-.47h-1.21V54h1.42a2.51,2.51,0,0,0,1.54-.46A1.59,1.59,0,0,0,185.88,52.23Z"/><path class="cls-1" d="M202.91,63.37h-3.42l-.06-1.71A3.19,3.19,0,0,1,198,63a4.9,4.9,0,0,1-2.32.52,4.5,4.5,0,0,1-3.29-1.09,4.44,4.44,0,0,1-1.12-3.32v-.23a4.12,4.12,0,0,1,1.49-3.4,6.19,6.19,0,0,1,4-1.19,5.56,5.56,0,0,1,1.51.21,2.71,2.71,0,0,1,1.08.55v-1.3a1.39,1.39,0,0,0-.62-1.14,2.74,2.74,0,0,0-1.73-.47,7.87,7.87,0,0,0-2.15.26,7.69,7.69,0,0,0-1.63.66V50.85a13.63,13.63,0,0,1,2-.62,11.56,11.56,0,0,1,2.69-.27,5.25,5.25,0,0,1,3.75,1.15,4.86,4.86,0,0,1,1.22,3.67ZM199.4,59v-.36a2.6,2.6,0,0,0-.56-1.8,2.08,2.08,0,0,0-1.65-.63,2.23,2.23,0,0,0-1.63.59,2.53,2.53,0,0,0-.6,1.87V59a2,2,0,0,0,.64,1.78,2.71,2.71,0,0,0,1.61.44,2.38,2.38,0,0,0,1.52-.54A2.08,2.08,0,0,0,199.4,59Z"/><path class="cls-1" d="M216.08,62.67a6.34,6.34,0,0,1-1.29.59,6.24,6.24,0,0,1-2.23.4A7.39,7.39,0,0,1,207.5,62a6.22,6.22,0,0,1-1.88-4.95V56.5a6.4,6.4,0,0,1,1.84-4.8,6.85,6.85,0,0,1,5-1.8,7.51,7.51,0,0,1,2.25.31,3.64,3.64,0,0,1,1.38.68v2.35a4.13,4.13,0,0,0-1.3-.76,5.1,5.1,0,0,0-1.77-.3,3,3,0,0,0-2.54,1.19,5.4,5.4,0,0,0-.88,3.27v.24a5.71,5.71,0,0,0,.72,3.3,2.65,2.65,0,0,0,2.3,1,6.66,6.66,0,0,0,2.08-.33,4.27,4.27,0,0,0,1.39-.66Z"/><path class="cls-1" d="M66.2,18.67H78.1L79,19.82Q77.82,28,67.25,34.73L65,32.19a29.94,29.94,0,0,0,6.1-3.9,20.18,20.18,0,0,0,3.36-3.79,9,9,0,0,0,1.25-2.34.35.35,0,0,0,0-.37,1.33,1.33,0,0,0-.74-.17H66.2ZM84,22.3V33.58a3.9,3.9,0,0,1-1.42,3.19,5.27,5.27,0,0,1-3.53.94A24.55,24.55,0,0,1,73.52,37l-.2-3.26c3.5,1,5.72,1.22,6.67.75a2.47,2.47,0,0,0,.88-2V15.72c0-.31-.16-.47-.5-.47H67.12V12.3H83c.66,0,1,.37.95,1v1.19A42.61,42.61,0,0,0,88.7,24.77a38.23,38.23,0,0,0,9,8.81l-2.65,2A40.85,40.85,0,0,1,84,22.3ZM71,8.85l.44-3c1.6.11,4.48.42,8.64.91A104.09,104.09,0,0,1,90.7,8.4l-.64,3A108.32,108.32,0,0,0,71,8.85Zm24.22,3L97.31,14a47.08,47.08,0,0,1-7.15,6.85l-2-2.21A47.12,47.12,0,0,0,95.17,11.89Z"/><path class="cls-1" d="M113.79,35c-.14-.31-.27-.62-.41-.91-.29-.54-.52-1-.68-1.36h-4.33c-.21,0-.31-.11-.31-.33V26.88a.27.27,0,0,1,.31-.31h24.94c.22,0,.33.1.33.31v5.56a.29.29,0,0,1-.33.33h-4.48c-.16.43-.38,1-.67,1.6a4.23,4.23,0,0,0-.34.67H137v2.41H104.6V35Zm-8.37-12.13h30.94v2.27H105.42Zm21.21-5.52h-3.18V15.25h3.18V13.59h-3.18V11.46h3.18V9.66h-3.18V7.53h3.18v-2H129v2h2.84V9.66H129v1.8h2.71v2.13H129v1.66h2.71v2.14H129v1.73h3.66a.39.39,0,0,0,.44-.44V6.14h2.67V20.27a1,1,0,0,1-1.12,1.12H107a1,1,0,0,1-1.09-1.12V6.14h2.68V18.68c0,.29.14.44.41.44h3.69V17.39h-3V15.25h3V13.46h-2.91V11.33h2.91V9.66h-3V7.53h3V5.7h2.41V7.53h2.71V9.66h-2.71v1.67h2.71v2.13h-2.71v1.79h2.84v2.14h-2.84v1.73h4.23V5.7H122V19.12h4.64Zm4.47,11.45H110.57c-.09,0-.13,0-.1.11v1.42c0,.07,0,.11.1.13H131.1c.09,0,.14-.06.14-.13V29C131.24,28.88,131.19,28.84,131.1,28.84ZM116.67,35h8.2c.38-.76.76-1.52,1.12-2.27H115.62C115.84,33.2,116.19,34,116.67,35Z"/><path class="cls-1" d="M152.57,8.18a28.91,28.91,0,0,1-6.07,5.59L144,12q5.65-3.45,7.39-6.61H154c-.07.18-.15.37-.24.58l.07-.07A54.93,54.93,0,0,0,158.63,10l-2.2,2A49.92,49.92,0,0,1,152.57,8.18Zm-8.3,17.35,2.57-.78a28.91,28.91,0,0,1,1.76,6.54l-2.64.64A32.34,32.34,0,0,0,144.27,25.53Zm5.72,8V23.12h-5.15V20.44H150V16.88h-3.65V14.21h10.19v2.67h-3.72v3.56h4.81v2.68h-4.81v9.72c2.16-.58,3.6-1,4.3-1.18l.58,2.74a119.92,119.92,0,0,1-12.44,2.75l-.37-2.75C146.43,34.16,148.14,33.85,150,33.49Zm5.26-8.71,2.37.85Q157,28,156,30.57l-2.31-1A32,32,0,0,0,155.25,24.78Zm14,3.15a42.29,42.29,0,0,0,4.95-4.37l1.83,2a37.91,37.91,0,0,1-5.42,4.74,24.4,24.4,0,0,0,6.1,5.46l-2.51,2a26.58,26.58,0,0,1-4.78-4.33,17.69,17.69,0,0,1-4.17-10.95h-3.08V33.9q2.88-.88,4.91-1.73l.92,2.68a51.26,51.26,0,0,1-10.13,3.08l-.78-2.75c.76-.2,1.52-.38,2.27-.54V7.29a.72.72,0,0,1,.81-.81h13.49q.84,0,.84.81V21.56a.79.79,0,0,1-.88.88h-5.56A17.93,17.93,0,0,0,169.24,27.93Zm-7.08-14.81h9.52V9.8a.6.6,0,0,0-.68-.64h-8.16c-.48,0-.7.25-.68.68Zm9.52,2.68h-9.52v4h8.78a.66.66,0,0,0,.74-.75Z"/><path class="cls-1" d="M188.39,24.2c-.81.83-1.57,1.56-2.27,2.17l-2.4-1.9a26.44,26.44,0,0,0,7.55-10L194,15.66a48.25,48.25,0,0,1-2.61,4.71V37.72h-3ZM190,5.7l2.74,1q-2.72,6.51-6.27,9.65L184,14.68A22.16,22.16,0,0,0,190,5.7Zm17.65,12.64h-12.4V15.39H216v2.95h-5.42V33.92a3.41,3.41,0,0,1-1.56,3c-1.88,1.23-5.29,1.11-10.23-.33l.06-3.09a45.11,45.11,0,0,0,5.19,1.22,4.34,4.34,0,0,0,3.29-.57,1.3,1.3,0,0,0,.3-1ZM196.32,7.26h18.33V10.2H196.32Z"/><path class="cls-2" d="M48.64,24.32A24.32,24.32,0,1,1,24.32,0,24.32,24.32,0,0,1,48.64,24.32Z"/><rect class="cls-3" x="27.02" y="8.79" width="6.08" height="6.08"/><polygon class="cls-3" points="5.4 25.67 5.4 31.08 10.81 31.08 10.81 36.48 16.21 36.48 16.21 25.67 5.4 25.67"/><polygon class="cls-3" points="6.75 14.86 6.75 20.27 21.62 20.27 21.62 36.48 27.02 36.48 27.02 14.86 6.75 14.86"/><polygon class="cls-3" points="32.43 20.27 32.43 36.48 37.83 36.48 37.83 25.67 44.58 25.67 44.58 20.27 32.43 20.27"/></g></g></svg>